<svg width="735" height="196" viewBox="0 0 735 196" fill="none" xmlns="http://www.w3.org/2000/svg">
<path fill-rule="evenodd" clip-rule="evenodd" d="M572.708 118C575.447 132.34 586.5 142.714 600 144C613.5 145.286 626.434 141.5 637.5 131.5L643.5 151C643.5 151 631 165 602.5 165C570 165 548 139.904 548 110.5C548 81.0962 570.606 56 600 56C627.208 56 650.448 78.9999 650.99 105.994L651 106V118H572.708ZM573.101 100C575.963 87.0683 584.512 77 600 77C616.79 77 624.418 87.9573 626.434 100H573.101Z" fill="#1F2839"/>
<path fill-rule="evenodd" clip-rule="evenodd" d="M314.708 118C317.447 132.34 328.5 142.714 342 144C355.5 145.286 368.434 141.5 379.5 131.5L385.5 151C385.5 151 373 165 344.5 165C312 165 290 139.904 290 110.5C290 81.0962 312.606 56 342 56C369.208 56 392.448 78.9999 392.99 105.994L393 106V118H314.708ZM315.101 100C317.963 87.0683 326.512 77 342 77C358.79 77 366.418 87.9573 368.434 100H315.101Z" fill="#1F2839"/>
<path d="M237 27L237 128.228C237 138.533 240.136 147.766 246.282 154.571C252.463 161.416 260.998 165 270 165C275.296 165 280.76 164.072 285.791 162.385C285.819 162.376 278.182 139.623 278.208 139.615C275.563 140.414 272.77 141 270 141C267.502 141 265.537 140.084 264.093 138.486C262.614 136.847 261 133.694 261 128.228V27H237Z" fill="#1F2839"/>
<path d="M693 163H669V59H693V67.5C700.5 58.9345 714 53 734.5 61L727 81C717.5 78.1116 708.3 79.7357 701.8 85.114C692.8 92.5839 693 102 693 102V163Z" fill="#1F2839"/>
<path d="M423 128.228V83H401V61H412C417.533 61 419.625 59.0266 420.75 57.4256C422.306 55.211 423 52.0307 423 49.5V31H447V61H480C485.533 61 487.625 59.0266 488.75 57.4256C490.306 55.211 491 52.0307 491 49.5V31H515V61H539V83H515V128.228C515 133.694 516.614 136.847 518.093 138.486C519.537 140.084 521.502 141 524 141C528.97 141 532.371 139.561 532.212 139.614L532.209 139.615C532.166 139.629 539.84 162.369 539.788 162.387C534.733 164.039 529.315 165 524 165C514.998 165 506.463 161.416 500.282 154.571C494.136 147.766 491 138.533 491 128.228V83H447V128.228C447 133.694 448.614 136.847 450.093 138.486C451.537 140.084 453.502 141 456 141C460.968 141 464.209 139.615 464.209 139.615C464.172 139.627 471.836 162.37 471.788 162.387C466.737 164.045 461.312 165 456 165C446.998 165 438.463 161.416 432.282 154.571C426.136 147.766 423 138.533 423 128.228Z" fill="#1F2839"/>
<path d="M175.35 118.976C174.188 116.406 171.616 114.748 168.713 114.748H76.209L164.647 12.022C166.473 9.86633 166.887 6.79865 165.726 4.22843C164.564 1.65821 161.993 0 159.089 0H70.6504C68.4934 0 66.5023 0.912014 65.1749 2.48731L9.092 67.6548C-0.531697 78.8477 -2.68873 94.1032 3.45052 107.452C9.58977 120.883 22.6149 129.174 37.2994 129.174H44.6001L40.0371 134.563C30.4964 145.756 28.3394 161.012 34.4786 174.36C40.6179 187.709 53.6431 196 68.3275 196H111.468C113.625 196 115.616 195.088 117.027 193.43L174.271 126.604C176.096 124.614 176.511 121.547 175.35 118.976ZM16.6416 101.565C12.8253 93.2741 14.1527 84.2369 20.0431 77.2724L73.969 14.5922H143.243L57.0445 114.748H37.2994C28.1735 114.748 20.4579 109.773 16.6416 101.565ZM108.15 181.574H68.3275C59.2016 181.574 51.486 176.599 47.6697 168.391C43.8534 160.1 45.0979 151.063 51.0712 144.098L63.7645 129.257H152.95L108.15 181.574Z" fill="#1F2839"/>
</svg>
